<svg xmlns="http://www.w3.org/2000/svg" xmlns:xlink="http://www.w3.org/1999/xlink" width="100" height="100" viewBox="0 0 100 100"><g><g transform="translate(50 50) scale(0.69 0.69) rotate(0) translate(-50 -50)" style="fill:#4e7071"><svg fill="#4e7071" xmlns="http://www.w3.org/2000/svg" xmlns:xlink="http://www.w3.org/1999/xlink" version="1.1" x="0px" y="0px" viewBox="0 0 64 64" enable-background="new 0 0 64 64" xml:space="preserve"><g><g><g><g><path d="M53.994,60.008c-0.553,0-1-0.447-1-1s0.447-1,1-1c1.654,0,3-1.346,3-3s-1.346-3-3-3c-0.553,0-1-0.447-1-1s0.447-1,1-1      c2.757,0,5,2.243,5,5S56.751,60.008,53.994,60.008z"></path></g></g><g><g><path d="M11.992,60.008c-1.654,0-3-1.346-3-3s1.346-3,3-3c0.553,0,1,0.447,1,1s-0.447,1-1,1c-0.552,0-1,0.448-1,1s0.448,1,1,1      c0.553,0,1,0.447,1,1S12.545,60.008,11.992,60.008z"></path></g></g><g><g><path d="M12.002,64.008c-3.859,0-7-3.141-7-7c0-3.858,3.141-6.998,7-6.998c0.553,0,1,0.447,1,1s-0.447,1-1,1      c-2.757,0-5,2.242-5,4.998c0,2.757,2.243,5,5,5c0.553,0,1,0.447,1,1S12.555,64.008,12.002,64.008z"></path></g></g><g><g><path d="M6.002,20c-0.553,0-1-0.447-1-1c0-3.858,3.141-6.998,7-6.998c0.553,0,1,0.447,1,1s-0.447,1-1,1      c-2.757,0-5,2.242-5,4.998C7.002,19.553,6.555,20,6.002,20z"></path></g></g><g><g><path d="M53.994,56.008H11.992c-0.553,0-1-0.447-1-1s0.447-1,1-1h42.002c0.553,0,1,0.447,1,1S54.547,56.008,53.994,56.008z"></path></g></g><g><g><path d="M53.994,52.008H12c-0.553,0-1-0.447-1-1s0.447-1,1-1h41.994c0.553,0,1,0.447,1,1S54.547,52.008,53.994,52.008z"></path></g></g><g><g><path d="M53.994,60.008H11.992c-0.553,0-1-0.447-1-1s0.447-1,1-1h42.002c0.553,0,1,0.447,1,1S54.547,60.008,53.994,60.008z"></path></g></g><g><g><path d="M53.994,64.008H11.992c-0.553,0-1-0.447-1-1s0.447-1,1-1h42.002c0.553,0,1,0.447,1,1S54.547,64.008,53.994,64.008z"></path></g></g><g><g><path d="M53.994,64.008c-0.553,0-1-0.447-1-1v-4c0-0.553,0.447-1,1-1s1,0.447,1,1v4C54.994,63.561,54.547,64.008,53.994,64.008z      "></path></g></g><g><g><path d="M6.002,58.008c-0.553,0-1-0.447-1-1V19c0-0.553,0.447-1,1-1s1,0.447,1,1v38.008C7.002,57.561,6.555,58.008,6.002,58.008      z"></path></g></g><g><g><path d="M57.998,20c-0.553,0-1-0.447-1-1c0-2.756-2.243-4.998-5-4.998c-0.553,0-1-0.447-1-1s0.447-1,1-1c3.859,0,7,3.14,7,6.998      C58.998,19.553,58.551,20,57.998,20z"></path></g></g><g><g><path d="M57.998,56.008c-0.553,0-1-0.447-1-1V19c0-0.553,0.447-1,1-1s1,0.447,1,1v36.008      C58.998,55.561,58.551,56.008,57.998,56.008z"></path></g></g></g><g><g><g><path d="M47.988,47.98c-0.553,0-1-0.447-1-1s0.447-1,1-1c1.654,0,3-1.346,3-3s-1.346-3-3-3c-0.553,0-1-0.447-1-1s0.447-1,1-1      c2.757,0,5,2.243,5,5S50.745,47.98,47.988,47.98z"></path></g></g><g><g><path d="M17.998,47.98c-1.654,0-3-1.346-3-3s1.346-3,3-3c0.553,0,1,0.447,1,1s-0.447,1-1,1c-0.552,0-1,0.448-1,1s0.448,1,1,1      c0.553,0,1,0.447,1,1S18.551,47.98,17.998,47.98z"></path></g></g><g><g><path d="M18.008,51.979c-3.859,0-7-3.14-7-6.998c0-3.859,3.141-7,7-7c0.553,0,1,0.447,1,1s-0.447,1-1,1c-2.757,0-5,2.243-5,5      c0,2.756,2.243,4.998,5,4.998c0.553,0,1,0.447,1,1S18.561,51.979,18.008,51.979z"></path></g></g><g><g><path d="M12.008,7.992c-0.553,0-1-0.447-1-1c0-3.859,3.141-7,7-7c0.553,0,1,0.447,1,1s-0.447,1-1,1c-2.757,0-5,2.243-5,5      C13.008,7.545,12.561,7.992,12.008,7.992z"></path></g></g><g><g><path d="M47.988,43.98h-29.99c-0.553,0-1-0.447-1-1s0.447-1,1-1h29.99c0.553,0,1,0.447,1,1S48.541,43.98,47.988,43.98z"></path></g></g><g><g><path d="M47.988,39.98H18.006c-0.553,0-1-0.447-1-1s0.447-1,1-1h29.982c0.553,0,1,0.447,1,1S48.541,39.98,47.988,39.98z"></path></g></g><g><g><path d="M47.988,47.98h-29.99c-0.553,0-1-0.447-1-1s0.447-1,1-1h29.99c0.553,0,1,0.447,1,1S48.541,47.98,47.988,47.98z"></path></g></g><g><g><path d="M47.988,51.979h-29.99c-0.553,0-1-0.447-1-1s0.447-1,1-1h29.99c0.553,0,1,0.447,1,1S48.541,51.979,47.988,51.979z"></path></g></g><g><g><path d="M47.988,51.979c-0.553,0-1-0.447-1-1V46.98c0-0.553,0.447-1,1-1s1,0.447,1,1v3.998      C48.988,51.531,48.541,51.979,47.988,51.979z"></path></g></g><g><g><path d="M12.008,45.98c-0.553,0-1-0.447-1-1V6.992c0-0.553,0.447-1,1-1s1,0.447,1,1V44.98      C13.008,45.533,12.561,45.98,12.008,45.98z"></path></g></g><g><g><path d="M51.992,7.992c-0.553,0-1-0.447-1-1c0-2.757-2.243-5-5-5c-0.553,0-1-0.447-1-1s0.447-1,1-1c3.859,0,7,3.141,7,7      C52.992,7.545,52.545,7.992,51.992,7.992z"></path></g></g><g><g><path d="M51.992,43.98c-0.553,0-1-0.447-1-1V6.992c0-0.553,0.447-1,1-1s1,0.447,1,1V42.98      C52.992,43.533,52.545,43.98,51.992,43.98z"></path></g></g><g><g><path d="M45.992,1.992H18.008c-0.553,0-1-0.447-1-1s0.447-1,1-1h27.984c0.553,0,1,0.447,1,1S46.545,1.992,45.992,1.992z"></path></g></g></g></g></svg></g></g></svg>